<svg width="18" height="21" viewBox="0 0 18 21" fill="none" xmlns="http://www.w3.org/2000/svg">
<mask id="path-1-inside-1_37_59" fill="white">
<path d="M0 1.71256L1.773 0.4375L18 10.5L1.773 20.5625L0 19.2874L14.1705 10.5L0 1.71256Z"/>
</mask>
<path d="M0 1.71256L1.773 0.4375L18 10.5L1.773 20.5625L0 19.2874L14.1705 10.5L0 1.71256Z" fill="black"/>
<path d="M0 1.71256L-583.853 -810.147L-1798.29 63.2226L-527.014 851.569L0 1.71256ZM1.773 0.4375L528.779 -849.424L-39.3525 -1201.73L-582.08 -811.422L1.773 0.4375ZM18 10.5L545.006 860.361L1915.51 10.5L545.006 -839.361L18 10.5ZM1.773 20.5625L-582.08 832.422L-39.3525 1222.73L528.779 870.424L1.773 20.5625ZM0 19.2874L-527.014 -830.569L-1798.29 -42.2226L-583.853 831.147L0 19.2874ZM14.1705 10.5L541.185 860.356L1911.65 10.5L541.185 -839.356L14.1705 10.5ZM583.853 813.572L585.626 812.297L-582.08 -811.422L-583.853 -810.147L583.853 813.572ZM-525.233 850.299L-509.006 860.361L545.006 -839.361L528.779 -849.424L-525.233 850.299ZM-509.006 -839.361L-525.233 -829.299L528.779 870.424L545.006 860.361L-509.006 -839.361ZM585.626 -791.297L583.853 -792.572L-583.853 831.147L-582.08 832.422L585.626 -791.297ZM527.014 869.144L541.185 860.356L-512.844 -839.356L-527.014 -830.569L527.014 869.144ZM541.185 -839.356L527.014 -848.144L-527.014 851.569L-512.844 860.356L541.185 -839.356Z" fill="black" mask="url(#path-1-inside-1_37_59)"/>
</svg>
