<svg width="294" height="96" viewBox="0 0 294 96" fill="none" xmlns="http://www.w3.org/2000/svg">
<rect width="286" height="96" rx="48" fill="#47B0DF"/>
<rect width="5.9872" height="62.1879" transform="matrix(0.912589 0.408877 -0.288165 0.957581 70.3413 13.064)" fill="#073B87"/>
<path d="M87.1719 19.7273H92.1577L102.499 60.9062H102.937L126.874 19.7273H131.859L124.011 67H119.949L126.32 28.8448H125.95L103.63 67H99.7056L90.1264 28.8448H89.7571L83.3864 67H79.3239L87.1719 19.7273ZM144.428 19.7273H148.698L142.143 59.3597H142.512L176.997 19.7273H181.267L173.419 67H169.103L175.681 27.4137H175.312L140.85 67H136.58L144.428 19.7273ZM221.419 19.7273L220.796 23.6051H197.483L190.281 67H185.964L193.812 19.7273H221.419ZM217.835 67H213.311L238.356 19.7273H242.972L252.321 67H247.796L239.925 25.3363H239.625L217.835 67ZM224.114 48.8803H247.566L246.919 52.7582H223.468L224.114 48.8803Z" fill="white"/>
<rect width="6.02109" height="61.9265" transform="matrix(0.894708 0.446652 -0.317907 0.948122 54.5651 13)" fill="#073B87"/>
<rect width="6.03617" height="61.8093" transform="matrix(0.886736 0.462275 -0.330477 0.943814 38.4265 13)" fill="#073B87"/>
</svg>
